<svg xmlns="http://www.w3.org/2000/svg" width="133" height="40" fill="none"><path fill="#1ED760" d="M19.985.066C8.98.066.06 8.993.06 20.005s8.92 19.938 19.925 19.938 19.924-8.926 19.924-19.938C39.91 8.994 30.99.067 19.984.067Zm9.137 28.758a1.24 1.24 0 0 1-1.708.411c-4.679-2.86-10.568-3.507-17.503-1.921a1.242 1.242 0 0 1-.553-2.424c7.59-1.735 14.1-.988 19.352 2.224.586.36.771 1.124.412 1.71Zm2.439-5.43a1.553 1.553 0 0 1-2.137.513c-5.356-3.294-13.52-4.248-19.854-2.324a1.555 1.555 0 0 1-.903-2.975c7.236-2.197 16.232-1.133 22.382 2.65.73.45.961 1.407.512 2.137Zm.209-5.653c-6.422-3.817-17.016-4.168-23.148-2.306a1.866 1.866 0 0 1-1.082-3.57c7.039-2.137 18.739-1.724 26.132 2.668a1.863 1.863 0 0 1 .652 2.556 1.861 1.861 0 0 1-2.553.652h-.001Zm22.498.732c-3.44-.821-4.052-1.397-4.052-2.608 0-1.144 1.076-1.914 2.677-1.914 1.551 0 3.088.585 4.701 1.788.048.036.11.051.17.041a.222.222 0 0 0 .15-.091l1.679-2.37a.226.226 0 0 0-.043-.307c-1.92-1.54-4.08-2.29-6.607-2.29-3.714 0-6.31 2.23-6.31 5.422 0 3.423 2.239 4.635 6.108 5.57 3.29.76 3.847 1.395 3.847 2.531 0 1.26-1.123 2.043-2.931 2.043-2.008 0-3.648-.679-5.48-2.265a.233.233 0 0 0-.164-.054.222.222 0 0 0-.155.078l-1.884 2.243a.227.227 0 0 0 .022.315c2.131 1.904 4.753 2.909 7.584 2.909 4.002 0 6.589-2.188 6.589-5.576.007-2.859-1.704-4.442-5.894-5.462l-.007-.003Zm14.956-3.396c-1.734 0-3.157.684-4.333 2.085v-1.577c0-.124-.1-.226-.223-.226h-3.081a.225.225 0 0 0-.224.226V33.11c0 .124.1.227.224.227h3.08a.226.226 0 0 0 .224-.227v-5.53c1.176 1.316 2.599 1.961 4.333 1.961 3.224 0 6.488-2.483 6.488-7.23.005-4.749-3.26-7.233-6.486-7.233h-.002Zm2.905 7.232c0 2.417-1.487 4.105-3.619 4.105-2.105 0-3.695-1.764-3.695-4.105 0-2.34 1.59-4.104 3.695-4.104 2.096 0 3.62 1.726 3.62 4.105Zm11.946-7.232c-4.151 0-7.404 3.2-7.404 7.284 0 4.041 3.231 7.205 7.354 7.205 4.166 0 7.428-3.188 7.428-7.256 0-4.055-3.24-7.232-7.378-7.232Zm0 11.36c-2.208 0-3.873-1.775-3.873-4.129 0-2.364 1.608-4.08 3.823-4.08 2.223 0 3.898 1.776 3.898 4.132 0 2.364-1.618 4.078-3.848 4.078ZM100.32 15.36h-3.39v-3.468c0-.124-.1-.226-.225-.226h-3.08a.227.227 0 0 0-.227.226v3.468h-1.48a.225.225 0 0 0-.223.226v2.65c0 .124.1.226.223.226h1.48v6.855c0 2.77 1.378 4.174 4.097 4.174 1.104 0 2.02-.228 2.884-.719a.221.221 0 0 0 .114-.195v-2.524c0-.076-.04-.15-.107-.19a.219.219 0 0 0-.219-.01 3.885 3.885 0 0 1-1.808.436c-.987 0-1.43-.45-1.43-1.455v-6.371h3.391a.225.225 0 0 0 .223-.226v-2.65a.218.218 0 0 0-.221-.225l-.002-.002Zm11.81.014v-.426c0-1.253.481-1.812 1.556-1.812.643 0 1.159.128 1.737.32a.223.223 0 0 0 .202-.031.223.223 0 0 0 .093-.183v-2.598c0-.1-.062-.187-.159-.216a8.438 8.438 0 0 0-2.56-.368c-2.844 0-4.35 1.603-4.35 4.635v.652h-1.48a.227.227 0 0 0-.226.226v2.663c0 .124.103.226.226.226h1.48v10.572c0 .126.103.226.226.226h3.079c.126 0 .226-.1.226-.226V18.461h2.877l4.406 10.572c-.5 1.11-.992 1.331-1.663 1.331-.543 0-1.116-.162-1.699-.483a.244.244 0 0 0-.178-.017.225.225 0 0 0-.134.121l-1.044 2.293a.226.226 0 0 0 .097.293c1.09.59 2.073.843 3.289.843 2.274 0 3.533-1.062 4.639-3.914l5.344-13.819a.221.221 0 0 0-.024-.21.219.219 0 0 0-.183-.098h-3.207a.224.224 0 0 0-.214.152l-3.286 9.389-3.598-9.395a.224.224 0 0 0-.209-.146h-5.263Zm-6.847-.014H102.2a.227.227 0 0 0-.226.226v13.448c0 .126.103.226.226.226h3.082c.123 0 .226-.1.226-.226V15.586c0-.124-.1-.226-.226-.226Zm-1.523-6.123a2.21 2.21 0 1 0 0 4.422 2.21 2.21 0 0 0 0-4.422Zm26.985 10.447a2.16 2.16 0 0 1-2.167-2.17c0-1.189.961-2.18 2.179-2.18a2.16 2.16 0 0 1 2.168 2.168c0 1.19-.961 2.182-2.18 2.182Zm.012-4.134c-1.111 0-1.951.883-1.951 1.965 0 1.081.835 1.952 1.939 1.952 1.111 0 1.951-.882 1.951-1.965 0-1.08-.835-1.952-1.939-1.952Zm.481 2.175.614.86h-.519l-.552-.788h-.473v.788h-.433v-2.278h1.013c.531 0 .878.271.878.727.002.373-.214.601-.526.691h-.002Zm-.367-1.027h-.563v.72h.563c.281 0 .45-.138.45-.36 0-.234-.169-.36-.45-.36Z"/></svg>