<svg xmlns="http://www.w3.org/2000/svg" width="156" height="42" fill="none"><path fill="#000" d="M64.728 34.785h-.07c.03 0 .052.033.082.04l.023-.005-.035-.035Zm.012.04c-.326.002-1.14.17-2.005.17-2.724 0-3.667-1.25-3.667-2.879V21.261h5.553c.315 0 .56-.28.56-.66v-5.896c0-.31-.28-.588-.56-.588h-5.55v-7.32c0-.277-.175-.45-.49-.45h-7.543c-.317 0-.49.173-.49.45v7.53s-3.809.935-4.053.97a.593.593 0 0 0-.454.59v4.716c0 .383.28.658.594.658h3.876V32.64c0 8.463 5.938 9.328 9.99 9.328 1.852 0 4.088-.588 4.437-.763.21-.07.314-.312.314-.555v-5.203a.617.617 0 0 0-.51-.619l-.002-.002Zm82.771-7.635c0-6.276-2.55-7.11-5.239-6.832-2.096.14-3.772 1.179-3.772 1.179v12.208s1.711 1.18 4.261 1.25c3.597.103 4.75-1.18 4.75-7.805Zm8.489-.555c0 11.898-3.877 15.295-10.655 15.295-5.727 0-8.801-2.877-8.801-2.877s-.139 1.594-.314 1.804c-.105.207-.279.275-.489.275h-5.169c-.349 0-.666-.278-.666-.588l.07-38.532a.607.607 0 0 1 .594-.588h7.441a.604.604 0 0 1 .594.588v13.075s2.864-1.838 7.055-1.838l-.035-.07c4.191 0 10.375 1.563 10.375 13.456Zm-30.46-12.518h-7.334c-.384 0-.594.277-.594.658v18.867s-1.923 1.353-4.54 1.353c-2.622 0-3.39-1.18-3.39-3.78V14.742a.615.615 0 0 0-.594-.593h-7.474a.61.61 0 0 0-.596.59v17.725c0 7.63 4.298 9.536 10.201 9.536 4.854 0 8.801-2.672 8.801-2.672s.177 1.354.279 1.564c.07.172.317.31.559.31h4.682a.563.563 0 0 0 .556-.36.586.586 0 0 0 .038-.23l.07-25.907c0-.31-.279-.588-.664-.588Zm-82.787-.035h-7.439c-.314 0-.593.313-.593.693V40.23c0 .693.454.936 1.047.936h6.706c.698 0 .873-.313.873-.936V14.67a.611.611 0 0 0-.594-.588ZM39.086 2.357c-2.69 0-4.82 2.116-4.82 4.786 0 2.671 2.13 4.785 4.82 4.785a4.74 4.74 0 0 0 3.367-1.402 4.762 4.762 0 0 0 1.383-3.381 4.77 4.77 0 0 0-1.381-3.384 4.749 4.749 0 0 0-3.369-1.404Zm57.604-.868h-7.374a.61.61 0 0 0-.594.59v14.187h-11.56V2.079a.612.612 0 0 0-.594-.59h-7.441a.61.61 0 0 0-.594.59v38.533c0 .31.314.588.594.588h7.441a.61.61 0 0 0 .594-.59V24.135h11.562l-.07 16.473c0 .313.28.59.594.59h7.44a.61.61 0 0 0 .593-.59V2.082a.612.612 0 0 0-.594-.59l.003-.003ZM30.774 18.553V38.46c0 .14-.035.38-.21.45 0 0-4.365 3.088-11.562 3.088C10.305 42 0 39.293 0 21.467 0 3.64 9.01-.033 17.814 0 25.428 0 28.501 1.7 28.99 2.012c.14.175.21.312.21.485L27.733 8.67c0 .313-.312.693-.698.59-1.258-.382-3.144-1.143-7.58-1.143-5.133 0-10.651 1.454-10.651 12.933 0 11.48 5.238 12.834 9.01 12.834 3.213 0 4.366-.383 4.366-.383v-7.975h-5.134c-.384 0-.664-.28-.664-.59v-6.382c0-.313.28-.588.664-.588h13.062c.386 0 .666.273.666.585Z"/></svg>