<svg xmlns="http://www.w3.org/2000/svg" width="40" height="40" fill="none"><path fill="url(#a)" d="M20.006 0C11.656 0 9.215.009 8.74.048c-1.714.142-2.78.412-3.941.99A7.984 7.984 0 0 0 2.5 2.722C1.23 4.038.463 5.659.184 7.585.05 8.52.01 8.711.001 13.488c-.003 1.592 0 3.688 0 6.499 0 8.343.01 10.782.05 11.256.138 1.667.4 2.716.953 3.864 1.059 2.196 3.08 3.845 5.46 4.46.825.213 1.736.33 2.905.385.495.022 5.543.037 10.595.037 5.051 0 10.102-.006 10.585-.03 1.354-.064 2.14-.17 3.01-.395a8.374 8.374 0 0 0 5.46-4.47c.543-1.12.818-2.208.943-3.789.026-.344.038-5.837.038-11.324s-.012-10.97-.04-11.314C39.835 7.06 39.56 5.98 39 4.84a7.929 7.929 0 0 0-1.712-2.346c-1.324-1.263-2.942-2.033-4.87-2.31-.934-.136-1.12-.176-5.901-.184h-6.51Z"/><path fill="url(#b)" d="M20.006 0C11.656 0 9.215.009 8.74.048c-1.714.142-2.78.412-3.941.99A7.984 7.984 0 0 0 2.5 2.722C1.23 4.038.463 5.659.184 7.585.05 8.52.01 8.711.001 13.488c-.003 1.592 0 3.688 0 6.499 0 8.343.01 10.782.05 11.256.138 1.667.4 2.716.953 3.864 1.059 2.196 3.08 3.845 5.46 4.46.825.213 1.736.33 2.905.385.495.022 5.543.037 10.595.037 5.051 0 10.102-.006 10.585-.03 1.354-.064 2.14-.17 3.01-.395a8.374 8.374 0 0 0 5.46-4.47c.543-1.12.818-2.208.943-3.789.026-.344.038-5.837.038-11.324s-.012-10.97-.04-11.314C39.835 7.06 39.56 5.98 39 4.84a7.929 7.929 0 0 0-1.712-2.346c-1.324-1.263-2.942-2.033-4.87-2.31-.934-.136-1.12-.176-5.901-.184h-6.51Z"/><path fill="#fff" d="M19.997 5.23c-4.01 0-4.514.017-6.088.089-1.573.072-2.646.32-3.585.686A7.23 7.23 0 0 0 7.71 7.707a7.249 7.249 0 0 0-1.705 2.616c-.366.94-.615 2.012-.686 3.584-.07 1.575-.089 2.079-.089 6.089s.018 4.512.09 6.087c.072 1.572.32 2.645.686 3.584a7.236 7.236 0 0 0 1.703 2.616 7.23 7.23 0 0 0 2.615 1.704c.94.365 2.012.614 3.584.686 1.575.072 2.078.09 6.088.09s4.513-.018 6.088-.09c1.572-.072 2.646-.32 3.586-.686a7.225 7.225 0 0 0 2.613-1.704 7.249 7.249 0 0 0 1.705-2.616c.363-.939.612-2.012.686-3.584.07-1.575.089-2.077.089-6.087s-.018-4.514-.09-6.089c-.073-1.572-.322-2.645-.685-3.584a7.247 7.247 0 0 0-1.705-2.616 7.217 7.217 0 0 0-2.614-1.702c-.942-.365-2.015-.614-3.587-.686-1.575-.072-2.077-.09-6.088-.09h.004Zm-1.325 2.66h1.325c3.943 0 4.41.015 5.967.085 1.44.066 2.221.307 2.742.509.689.268 1.18.588 1.697 1.104.516.517.836 1.01 1.105 1.699.202.52.443 1.3.508 2.74.07 1.557.086 2.025.086 5.966 0 3.94-.015 4.408-.086 5.965-.066 1.44-.306 2.22-.508 2.74a4.566 4.566 0 0 1-1.105 1.697 4.567 4.567 0 0 1-1.697 1.104c-.52.203-1.302.443-2.742.51-1.557.07-2.024.085-5.967.085-3.943 0-4.41-.015-5.967-.086-1.44-.066-2.22-.307-2.742-.509a4.573 4.573 0 0 1-1.698-1.104 4.577 4.577 0 0 1-1.105-1.698c-.202-.52-.443-1.301-.508-2.74-.071-1.557-.085-2.025-.085-5.968s.014-4.409.085-5.965c.066-1.44.306-2.221.508-2.742A4.575 4.575 0 0 1 9.59 9.584a4.582 4.582 0 0 1 1.698-1.105c.52-.203 1.303-.443 2.742-.51 1.363-.06 1.89-.08 4.643-.082v.004Zm9.207 2.452a1.772 1.772 0 1 0 0 3.545 1.772 1.772 0 0 0 0-3.545Zm-7.882 2.07a7.583 7.583 0 1 0 0 15.168 7.583 7.583 0 0 0 0-15.167Zm0 2.662a4.922 4.922 0 1 1 0 9.844 4.922 4.922 0 0 1 0-9.844Z"/><defs><radialGradient id="a" cx="0" cy="0" r="1" gradientTransform="matrix(0 -39.6321 36.871 0 10.625 43.069)" gradientUnits="userSpaceOnUse"><stop stop-color="#FD5"/><stop offset=".1" stop-color="#FD5"/><stop offset=".5" stop-color="#FF543E"/><stop offset="1" stop-color="#C837AB"/></radialGradient><radialGradient id="b" cx="0" cy="0" r="1" gradientTransform="matrix(3.47815 17.37111 -71.62242 14.3407 -6.7 2.88)" gradientUnits="userSpaceOnUse"><stop stop-color="#3771C8"/><stop offset=".128" stop-color="#3771C8"/><stop offset="1" stop-color="#60F" stop-opacity="0"/></radialGradient></defs></svg>