<svg xmlns="http://www.w3.org/2000/svg" viewBox="0 0 64 64" width="64" height="64" fill="none">
  <g clip-path="url(#a)">
    <path fill="#9B9B9B" fill-rule="evenodd"
      d="M20 31.5c0-6.6846 5.3758-12.1094 12-12.1094S44 24.8154 44 31.5c0 6.6846-5.3758 12.1094-12 12.1094S20 38.1846 20 31.5Zm19.05-1.4062c.2177.1269.3726.1904.6242.1904.5903 0 1.1226-.4737 1.1226-1.1377 0-.5811-.2468-.8838-.6242-1.1035-2.7049-1.5918-6.4065-2.334-9.9387-2.334-2.0758 0-3.9823.2392-5.6855.7422-.4355.1269-.8419.5029-.8419 1.167 0 .6494.4887 1.1523 1.1274 1.1523.1937 0 .3773-.0543.5339-.1007.0312-.0092.0613-.0181.0903-.0262 3.9871-1.1231 10.1467-.625 13.5919 1.4502Zm-1.4065 3.741c.1528.0838.3102.1701.5307.1701.5274 0 .9339-.4248.9387-.9522 0-.4248-.1548-.7275-.5468-.9619-2.3903-1.4355-5.4242-2.2217-8.5645-2.2217-2.0129 0-3.3871.2832-4.7322.6641-.4984.1416-.75.4883-.75 1.0107 0 .5225.4209.9473.9387.9473.1601 0 .2705-.0343.4102-.0778.0502-.0156.1041-.0324.1656-.0491 4.0113-1.0987 8.5209-.3711 11.5451 1.4355.0216.0115.043.0232.0645.035Zm-1.2887 3.1974c.1888.1123.3146.1758.5178.1758.3919 0 .7355-.3076.7355-.7519 0-.4444-.1742-.6153-.4694-.8057-3.4548-2.085-7.5048-2.1631-11.4677-1.2793-.3629.0781-.6581.3174-.6581.8203 0 .3955.2952.7715.7645.7715.1102 0 .286-.0482.4479-.0925.0442-.0121.0874-.024.1279-.0345 3.4694-.7177 6.9823-.6396 10.0016 1.1963Z"
      clip-rule="evenodd" />
  </g>
  <defs>
    <clipPath id="a">
      <path fill="#fff" d="M20 19h24v25H20z" />
    </clipPath>
  </defs>
</svg>