<svg xmlns="http://www.w3.org/2000/svg" viewBox="0 0 64 64" width="64" height="64" fill="none">
  <path fill="#9B9B9B"
    d="M32.2949 40.2051c-1.3932 0-2.5944-.293-3.6035-.8789-1.0026-.586-1.7741-1.4095-2.3144-2.4707-.5404-1.0677-.8106-2.3177-.8106-3.75v-.42c0-1.3802.2637-2.6041.791-3.6718.5274-1.0677 1.2826-1.9076 2.2656-2.5196.9831-.6119 2.155-.9179 3.5157-.9179.957 0 1.8489.1399 2.6758.4199.8268.2734 1.5559.6771 2.1875 1.2109v3.3594H35l-.2734-2.1777c-.2149-.1563-.4525-.2897-.7129-.4004-.2539-.1107-.5339-.1953-.8399-.2539-.2995-.0586-.625-.0879-.9765-.0879-.8334 0-1.5463.2083-2.1387.625-.5925.4101-1.0482.9896-1.3672 1.7383-.3125.7487-.4687 1.6341-.4687 2.6562v.4395c0 1.0351.166 1.9303.498 2.6855.332.7552.804 1.3379 1.416 1.7481.6185.4036 1.3542.6054 2.2071.6054.4231 0 .843-.0455 1.2597-.1367.4167-.0976.7878-.2246 1.1133-.3808L35 35.625h1.9824v3.3301c-.5469.3581-1.2239.6575-2.0312.8984-.8073.2344-1.6927.3516-2.6563.3516Z" />
</svg>