<svg xmlns="http://www.w3.org/2000/svg" viewBox="0 0 64 64" width="64" height="64" fill="none">
  <path stroke="#9B9B9B" stroke-linecap="round" stroke-linejoin="round" stroke-width="2"
    d="M37 22H27c-2.7614 0-5 2.2386-5 5v10c0 2.7614 2.2386 5 5 5h10c2.7614 0 5-2.2386 5-5V27c0-2.7614-2.2386-5-5-5Z" />
  <path stroke="#9B9B9B" stroke-linecap="round" stroke-linejoin="round" stroke-width="2"
    d="M36 31.37c.1234.8322-.0188 1.6822-.4063 2.429-.3875.7468-1.0006 1.3524-1.7521 1.7307-.7515.3782-1.6032.5099-2.4339.3762-.8306-.1336-1.598-.5258-2.1929-1.1207-.5949-.595-.9871-1.3623-1.1208-2.193-.1336-.8307-.002-1.6823.3763-2.4338.3782-.7515.9838-1.3647 1.7306-1.7522.7468-.3875 1.5968-.5296 2.4291-.4062.8489.1259 1.6348.5215 2.2416 1.1283.6069.6068 1.0025 1.3928 1.1284 2.2417ZM37.5 26.5h.01" />
</svg>