<svg xmlns="http://www.w3.org/2000/svg" viewBox="0 0 64 64" width="64" height="64" fill="none"><path fill="#9B9B9B" fill-rule="evenodd" d="M27.988 25.632A48.274 48.274 0 0 1 32 25.454c1.377 0 2.74.071 4.012.178 1.531.128 2.522.215 3.28.393.69.161 1.075.375 1.406.71.036.038.088.093.121.132.293.335.485.753.594 1.544.117.848.12 1.955.12 3.625 0 1.652-.003 2.742-.12 3.58-.109.778-.3 1.193-.595 1.531a3.269 3.269 0 0 1-.121.131c-.336.34-.718.551-1.39.71-.743.174-1.713.258-3.218.383a49.86 49.86 0 0 1-4.089.174 49.86 49.86 0 0 1-4.089-.175c-1.505-.124-2.475-.208-3.218-.383-.673-.158-1.054-.369-1.39-.709a3.423 3.423 0 0 1-.121-.13c-.295-.34-.486-.754-.595-1.533-.117-.837-.12-1.927-.12-3.579 0-1.67.003-2.777.12-3.625.11-.791.301-1.209.593-1.544.034-.04.085-.094.122-.131.331-.336.716-.55 1.406-.711.758-.178 1.749-.264 3.28-.393ZM21 32.036c0-3.26 0-4.891 1.07-6.12.054-.062.125-.139.183-.197 1.144-1.161 2.633-1.286 5.611-1.536C29.168 24.073 30.574 24 32 24c1.427 0 2.832.073 4.136.183 2.978.25 4.467.375 5.611 1.536.057.058.129.135.182.197C43 27.145 43 28.776 43 32.036c0 3.222 0 4.833-1.072 6.063a4.77 4.77 0 0 1-.183.196c-1.146 1.162-2.609 1.283-5.534 1.525-1.307.108-2.733.18-4.211.18-1.478 0-2.904-.072-4.21-.18-2.926-.242-4.389-.363-5.535-1.525a4.835 4.835 0 0 1-.182-.196C21 36.869 21 35.259 21 32.036Zm7.7-3.116c0-.262.272-.438.514-.333l7.08 3.08a.362.362 0 0 1 0 .666l-7.08 3.08a.366.366 0 0 1-.514-.333v-6.16Z" clip-rule="evenodd"/></svg>