<svg xmlns="http://www.w3.org/2000/svg" width="64" height="64" viewBox="0 0 64 64" fill="none"><path fill="#9B9B9B" d="M39.51 24.935a5.232 5.232 0 0 1-.455-.264 6.389 6.389 0 0 1-1.167-.992c-.87-.995-1.195-2.005-1.314-2.712h.004c-.1-.587-.058-.967-.052-.967h-3.963v15.324c0 .206 0 .41-.009.61 0 .026-.002.049-.004.076 0 .01 0 .022-.002.034v.008a3.366 3.366 0 0 1-1.693 2.671c-.5.284-1.065.434-1.64.433-1.846 0-3.343-1.506-3.343-3.365 0-1.86 1.497-3.365 3.343-3.365.35 0 .697.054 1.03.163l.004-4.035a7.36 7.36 0 0 0-5.672 1.659 7.777 7.777 0 0 0-1.697 2.093c-.168.288-.799 1.447-.875 3.328-.048 1.068.272 2.174.425 2.631v.01c.096.269.469 1.188 1.076 1.962a8.05 8.05 0 0 0 1.717 1.62v-.01l.01.01c1.918 1.303 4.045 1.218 4.045 1.218.368-.015 1.602 0 3.003-.664 1.553-.736 2.438-1.833 2.438-1.833a7.618 7.618 0 0 0 1.329-2.208c.358-.942.478-2.073.478-2.525v-8.13c.048.029.688.453.688.453s.923.59 2.362.976c1.033.274 2.424.332 2.424.332V25.54c-.487.053-1.477-.1-2.49-.606Z"/></svg>