<svg xmlns="http://www.w3.org/2000/svg" width="188" height="43" fill="none"><path fill="red" d="M58.7 6.563a7.513 7.513 0 0 0-5.3-5.308C48.726 0 29.977 0 29.977 0S11.227 0 6.554 1.255a7.513 7.513 0 0 0-5.3 5.308C0 11.243 0 21.013 0 21.013s0 9.772 1.254 14.452a7.513 7.513 0 0 0 5.3 5.307c4.674 1.256 23.423 1.256 23.423 1.256s18.75 0 23.423-1.255a7.513 7.513 0 0 0 5.3-5.308c1.254-4.68 1.254-14.451 1.254-14.451s-.005-9.77-1.254-14.45Z"/><path fill="#fff" d="m23.976 30.019 15.576-9.005-15.576-9.004v18.009Z"/><path fill="#282828" d="M72.613 27.326 65.881 2.981h5.873l2.36 11.036c.602 2.718 1.04 5.036 1.327 6.954h.173c.197-1.374.641-3.677 1.327-6.914L79.384 2.98h5.873l-6.815 24.345v11.679h-5.834V27.326h.005ZM87.024 38.233c-1.184-.8-2.028-2.046-2.532-3.737-.498-1.69-.75-3.933-.75-6.74v-3.821c0-2.832.286-5.11.859-6.825.572-1.715 1.466-2.97 2.68-3.756 1.214-.786 2.808-1.181 4.782-1.181 1.945 0 3.5.4 4.674 1.2 1.17.801 2.028 2.057 2.57 3.757.544 1.705.815 3.973.815 6.805v3.82c0 2.808-.266 5.061-.794 6.761-.528 1.705-1.387 2.95-2.572 3.736-1.184.786-2.793 1.182-4.821 1.182-2.093.005-3.726-.4-4.911-1.201Zm6.643-4.122c.326-.86.494-2.259.494-4.206v-8.199c0-1.888-.163-3.271-.494-4.141-.33-.875-.908-1.31-1.737-1.31-.8 0-1.367.435-1.693 1.31-.33.874-.494 2.253-.494 4.141v8.2c0 1.946.158 3.35.474 4.205.316.86.883 1.29 1.713 1.29.829 0 1.406-.43 1.737-1.29ZM119.227 39.01h-4.63l-.513-3.223h-.128c-1.259 2.432-3.144 3.647-5.661 3.647-1.742 0-3.03-.573-3.859-1.715-.829-1.146-1.244-2.935-1.244-5.367V12.688h5.917v19.318c0 1.177.129 2.012.385 2.511.257.5.686.751 1.288.751.514 0 1.007-.158 1.481-.474a2.956 2.956 0 0 0 1.051-1.201v-20.91h5.913v26.326Z"/><path fill="#282828" d="M135.302 7.75h-5.873v31.258h-5.789V7.75h-5.873V2.985h17.535V7.75Z"/><path fill="#282828" d="M149.574 39.01h-4.629l-.514-3.223h-.128c-1.258 2.432-3.144 3.647-5.661 3.647-1.742 0-3.03-.573-3.859-1.715-.829-1.146-1.244-2.935-1.244-5.367V12.688h5.918v19.318c0 1.177.128 2.012.384 2.511.257.5.686.751 1.289.751.513 0 1.006-.158 1.48-.474a2.956 2.956 0 0 0 1.051-1.201v-20.91h5.913v26.326ZM169.158 16.893c-.361-1.66-.938-2.862-1.738-3.608-.799-.746-1.9-1.117-3.301-1.117a5.45 5.45 0 0 0-3.045.924 6.268 6.268 0 0 0-2.187 2.427h-.044V1.651h-5.7v37.353h4.885l.603-2.49h.128c.459.889 1.145 1.585 2.058 2.105.913.514 1.93.77 3.045.77 1.999 0 3.475-.924 4.417-2.767.943-1.849 1.416-4.73 1.416-8.654v-4.166c0-2.94-.182-5.249-.537-6.91Zm-5.424 10.74c0 1.917-.079 3.42-.237 4.506-.158 1.088-.42 1.864-.795 2.318-.37.46-.873.687-1.5.687-.489 0-.938-.114-1.352-.346-.415-.227-.75-.573-1.007-1.028V18.83c.197-.716.543-1.3 1.031-1.76.484-.459 1.017-.686 1.584-.686.603 0 1.067.237 1.392.707.331.474.558 1.265.686 2.382.129 1.117.193 2.703.193 4.764v3.395h.005ZM178.09 29.149c0 1.69.05 2.955.148 3.8.099.846.306 1.459.622 1.849.316.385.8.578 1.456.578.884 0 1.495-.346 1.821-1.033.331-.687.509-1.833.538-3.435l5.103.302c.03.227.045.543.045.944 0 2.431-.667 4.25-1.994 5.45-1.328 1.202-3.208 1.805-5.636 1.805-2.917 0-4.96-.915-6.13-2.748-1.175-1.834-1.757-4.665-1.757-8.5v-4.597c0-3.948.607-6.835 1.821-8.653 1.214-1.819 3.292-2.728 6.238-2.728 2.029 0 3.588.37 4.674 1.117 1.086.746 1.851 1.902 2.295 3.479.444 1.576.666 3.75.666 6.528v4.508h-9.91v1.334Zm.75-12.405c-.301.37-.498.979-.602 1.824-.098.845-.148 2.125-.148 3.845V24.3h4.329v-1.888c0-1.69-.06-2.97-.173-3.845-.114-.875-.321-1.488-.622-1.849-.301-.355-.765-.538-1.392-.538-.631.005-1.095.193-1.392.563Z"/></svg>