<svg xmlns="http://www.w3.org/2000/svg" width="151" height="44" fill="none"><path fill="#FF004F" d="M28.856 15.843a17.31 17.31 0 0 0 10.08 3.215v-7.21c-.71 0-1.42-.074-2.116-.221v5.676a17.313 17.313 0 0 1-10.08-3.216v14.716c0 7.361-5.986 13.329-13.37 13.329-2.755 0-5.316-.83-7.443-2.255a13.349 13.349 0 0 0 9.56 4.01c7.383 0 13.37-5.967 13.37-13.329V15.843Zm2.612-7.275a10.037 10.037 0 0 1-2.612-5.885v-.927H26.85a10.095 10.095 0 0 0 4.618 6.812Zm-20.87 25.66a6.06 6.06 0 0 1-1.248-3.691c0-3.367 2.738-6.097 6.116-6.097.63 0 1.255.096 1.855.286v-7.372a13.526 13.526 0 0 0-2.116-.122v5.738a6.138 6.138 0 0 0-1.856-.285c-3.378 0-6.116 2.73-6.116 6.097a6.095 6.095 0 0 0 3.364 5.446Z"/><path fill="#000" d="M26.74 14.087a17.314 17.314 0 0 0 10.08 3.216v-5.677a10.124 10.124 0 0 1-5.352-3.058 10.095 10.095 0 0 1-4.618-6.812h-5.269v28.802c-.012 3.358-2.745 6.076-6.116 6.076a6.113 6.113 0 0 1-4.868-2.406 6.095 6.095 0 0 1-3.364-5.446c0-3.367 2.738-6.097 6.115-6.097.648 0 1.271.1 1.856.285v-5.738c-7.253.15-13.087 6.059-13.087 13.326 0 3.628 1.452 6.916 3.81 9.32a13.335 13.335 0 0 0 7.443 2.254c7.384 0 13.37-5.968 13.37-13.33V14.088Z"/><path fill="#00F2EA" d="M36.82 11.626v-1.535a10.1 10.1 0 0 1-5.352-1.524 10.116 10.116 0 0 0 5.351 3.059Zm-9.97-9.87c-.048-.275-.085-.551-.11-.828V0h-7.276v28.802c-.012 3.358-2.745 6.076-6.116 6.076-.99 0-1.924-.234-2.751-.65a6.113 6.113 0 0 0 4.868 2.406c3.37 0 6.104-2.719 6.116-6.076V1.755h5.27ZM15.205 17.231v-1.634a13.544 13.544 0 0 0-1.835-.124C5.986 15.474 0 21.44 0 28.802c0 4.615 2.353 8.682 5.928 11.075a13.262 13.262 0 0 1-3.811-9.32c0-7.267 5.834-13.176 13.088-13.325Z"/><path fill="#FF004F" d="M121.121 36.096c5.283 0 9.566-4.238 9.566-9.465 0-5.227-4.283-9.465-9.566-9.465h-1.441c5.283 0 9.566 4.238 9.566 9.465 0 5.227-4.283 9.465-9.566 9.465h1.441Z"/><path fill="#00F2EA" d="M119.549 17.166h-1.441c-5.283 0-9.567 4.238-9.567 9.465 0 5.227 4.284 9.465 9.567 9.465h1.441c-5.284 0-9.567-4.238-9.567-9.465 0-5.227 4.283-9.465 9.567-9.465Z"/><path fill="#000" d="M46.82 12.889v4.797h5.633v18.281h5.636V17.816h4.587l1.572-4.927H46.82Zm46.127 0v4.797h5.634v18.281h5.636V17.816h4.586l1.573-4.927H92.947Zm-27.65 2.722c0-1.503 1.23-2.722 2.75-2.722 1.521 0 2.753 1.219 2.753 2.722 0 1.504-1.231 2.723-2.753 2.723-1.52 0-2.75-1.22-2.75-2.723Zm0 4.668H70.8v15.688h-5.502V20.28Zm7.862-7.39v23.078h5.504v-5.963l1.704-1.558 5.372 7.65h5.896l-7.732-11.15 6.946-6.742h-6.683l-5.503 5.445v-10.76H73.16Zm59.362 0v23.078h5.505v-5.963l1.703-1.558 5.374 7.65H151l-7.732-11.15 6.945-6.742h-6.683l-5.504 5.445v-10.76h-5.505ZM119.679 36.096c5.283 0 9.567-4.238 9.567-9.465 0-5.227-4.284-9.465-9.567-9.465h-.13c-5.284 0-9.567 4.238-9.567 9.465 0 5.227 4.283 9.465 9.567 9.465h.13Zm-4.717-9.465c0-2.542 2.083-4.602 4.653-4.602 2.568 0 4.651 2.06 4.651 4.602 0 2.543-2.083 4.604-4.651 4.604-2.57 0-4.653-2.061-4.653-4.604Z"/></svg>